H0918M_states
version=1
nRows=8
nColumns=55
inDegrees=yes

# SIMM Motion File Header:
name H0918M_states
datacolumns 55
datarows 8
otherdata 1
range 1.12962463 1.13540226
endheader
time	/jointset/ground_pelvis/pelvis_tilt/value	/jointset/ground_pelvis/pelvis_tilt/speed	/jointset/ground_pelvis/pelvis_tx/value	/jointset/ground_pelvis/pelvis_tx/speed	/jointset/ground_pelvis/pelvis_ty/value	/jointset/ground_pelvis/pelvis_ty/speed	/jointset/hip_r/hip_flexion_r/value	/jointset/hip_r/hip_flexion_r/speed	/jointset/knee_r/knee_angle_r/value	/jointset/knee_r/knee_angle_r/speed	/jointset/ankle_r/ankle_angle_r/value	/jointset/ankle_r/ankle_angle_r/speed	/jointset/hip_l/hip_flexion_l/value	/jointset/hip_l/hip_flexion_l/speed	/jointset/knee_l/knee_angle_l/value	/jointset/knee_l/knee_angle_l/speed	/jointset/ankle_l/ankle_angle_l/value	/jointset/ankle_l/ankle_angle_l/speed	/forceset/hamstrings_r/activation	/forceset/hamstrings_r/fiber_length	/forceset/bifemsh_r/activation	/forceset/bifemsh_r/fiber_length	/forceset/glut_max_r/activation	/forceset/glut_max_r/fiber_length	/forceset/iliopsoas_r/activation	/forceset/iliopsoas_r/fiber_length	/forceset/rect_fem_r/activation	/forceset/rect_fem_r/fiber_length	/forceset/vasti_r/activation	/forceset/vasti_r/fiber_length	/forceset/gastroc_r/activation	/forceset/gastroc_r/fiber_length	/forceset/soleus_r/activation	/forceset/soleus_r/fiber_length	/forceset/tib_ant_r/activation	/forceset/tib_ant_r/fiber_length	/forceset/hamstrings_l/activation	/forceset/hamstrings_l/fiber_length	/forceset/bifemsh_l/activation	/forceset/bifemsh_l/fiber_length	/forceset/glut_max_l/activation	/forceset/glut_max_l/fiber_length	/forceset/iliopsoas_l/activation	/forceset/iliopsoas_l/fiber_length	/forceset/rect_fem_l/activation	/forceset/rect_fem_l/fiber_length	/forceset/vasti_l/activation	/forceset/vasti_l/fiber_length	/forceset/gastroc_l/activation	/forceset/gastroc_l/fiber_length	/forceset/soleus_l/activation	/forceset/soleus_l/fiber_length	/forceset/tib_ant_l/activation	/forceset/tib_ant_l/fiber_length
      1.12962463	   -118.02548753	   -392.89977244	      0.61101600	      0.49419629	     -0.69257972	     -2.44649578	      1.22710627	    180.88069960	    -64.96704276	    721.82603262	     -8.70738884	   -174.00569258	    363.69846622	    107.97176690	    -64.32561754	    547.49489848	     -1.52905532	   -552.30222850	     -0.13543917	      0.06552032	     -0.13543917	      0.13960555	     -0.13543917	      0.08331791	     -0.13543917	      0.10236355	     -0.11712946	      0.14852126	     -0.10888291	      0.09795626	     -0.11574067	      0.04540121	     -0.11942470	      0.05062407	     -0.10995837	      0.08719551	     -0.13315336	      0.08469292	     -0.12732097	      0.13995333	     -0.13440403	      0.09725056	     -0.10554180	      0.10106363	     -0.13543917	      0.14642683	     -0.13543917	      0.09703053	     -0.13543917	      0.04124269	     -0.13543917	      0.04931384	     -0.10696351	      0.08486905
      1.13034917	   -118.31008650	   -392.69010817	      0.61137563	      0.49847934	     -0.69435524	     -2.45459240	      1.35732554	    178.53662298	    -64.44244611	    726.20163582	     -8.83304270	   -172.32796412	    363.77430052	    101.26604307	    -63.92542931	    557.38374909	     -1.93234087	   -559.03369575	     -0.13553246	      0.06549079	     -0.13553246	      0.13986724	     -0.13553246	      0.08344466	     -0.13553246	      0.10230511	     -0.11722274	      0.14815235	     -0.10897620	      0.09778913	     -0.11583395	      0.04537470	     -0.11951799	      0.05059806	     -0.11005165	      0.08729076	     -0.13324665	      0.08464393	     -0.12741425	      0.14015293	     -0.13449731	      0.09719621	     -0.10563509	      0.10101207	     -0.13553246	      0.14614736	     -0.13553246	      0.09687817	     -0.13553246	      0.04122821	     -0.13553246	      0.04928836	     -0.10705680	      0.08482193
      1.13107371	   -118.59452328	   -392.45271758	      0.61173828	      0.50250136	     -0.69613668	     -2.46285132	      1.48576844	    175.97308353	    -63.91479938	    730.21990314	     -8.95621336	   -166.95954376	    363.84508947	     94.06227418	    -63.51767340	    568.30233638	     -2.33695535	   -556.65178610	     -0.13562574	      0.06546132	     -0.13562574	      0.14013149	     -0.13562574	      0.08357005	     -0.13562574	      0.10224716	     -0.11731603	      0.14778055	     -0.10906948	      0.09762475	     -0.11592724	      0.04534819	     -0.11961127	      0.05057212	     -0.11014494	      0.08738597	     -0.13333993	      0.08459495	     -0.12750754	      0.14035670	     -0.13459060	      0.09714194	     -0.10572837	      0.10096061	     -0.13562574	      0.14586718	     -0.13562574	      0.09672814	     -0.13562574	      0.04120651	     -0.13562574	      0.04926289	     -0.10715008	      0.08477483
      1.13199079	   -118.95428063	   -392.11784973	      0.61220129	      0.50718689	     -0.69840016	     -2.47347399	      1.64553201	    172.37958870	    -63.24306649	    734.57349789	     -9.10369950	   -153.27525715	    363.92695303	     84.37496231	    -62.98979256	    583.07090060	     -2.84301684	   -545.90740044	     -0.13574381	      0.06542410	     -0.13574381	      0.14046923	     -0.13574381	      0.08372639	     -0.13574381	      0.10217447	     -0.11743410	      0.14730594	     -0.10918756	      0.09742050	     -0.11604531	      0.04531466	     -0.11972935	      0.05053939	     -0.11026301	      0.08750504	     -0.13345800	      0.08453299	     -0.12762561	      0.14062109	     -0.13470867	      0.09707337	     -0.10584645	      0.10089560	     -0.13574381	      0.14551053	     -0.13574381	      0.09654149	     -0.13574381	      0.04117613	     -0.13574381	      0.04923064	     -0.10726815	      0.08471523
      1.13290786	   -119.31371500	   -391.74905513	      0.61266839	      0.51139701	     -0.70067344	     -2.48423168	      1.80180960	    168.36642593	    -62.56780255	    737.88457006	     -9.23452828	   -130.40741972	    363.99969120	     74.18167350	    -62.44800440	    598.59266229	     -3.33680325	   -530.41196864	     -0.13586189	      0.06538695	     -0.13586189	      0.14081051	     -0.13586189	      0.08387968	     -0.13586189	      0.10210250	     -0.11755218	      0.14682709	     -0.10930563	      0.09722036	     -0.11616338	      0.04528115	     -0.11984742	      0.05050674	     -0.11038109	      0.08761977	     -0.13357608	      0.08447106	     -0.12774368	      0.14089337	     -0.13482675	      0.09700492	     -0.10596452	      0.10083070	     -0.13586189	      0.14515075	     -0.13586189	      0.09635837	     -0.13586189	      0.04114562	     -0.13586189	      0.04919839	     -0.10738623	      0.08465566
      1.13410567	   -119.78264655	   -391.22296978	      0.61328388	      0.51616001	     -0.70365757	     -2.49840896	      2.00002283	    162.46804189	    -61.68225918	    740.34566146	     -9.36537204	    -85.06102543	    364.08028498	     60.29517114	    -61.71844468	    619.68635269	     -3.95838575	   -507.17063740	     -0.13601611	      0.06533856	     -0.13601611	      0.14126001	     -0.13601611	      0.08407466	     -0.13601611	      0.10200949	     -0.11770639	      0.14619594	     -0.10945985	      0.09696491	     -0.11631760	      0.04523740	     -0.12000164	      0.05046423	     -0.11053530	      0.08775636	     -0.13373030	      0.08439022	     -0.12789790	      0.14126109	     -0.13498096	      0.09691571	     -0.10611874	      0.10074609	     -0.13601611	      0.14467501	     -0.13601611	      0.09612433	     -0.13601611	      0.04110583	     -0.13601611	      0.04915628	     -0.10754045	      0.08457790
      1.13477168	   -120.04310003	   -390.91175858	      0.61362842	      0.51844951	     -0.70532415	     -2.50632288	      2.10704168	    158.87046428	    -61.18901799	    740.72930817	     -9.41133098	    -52.03056487	    364.11780913	     52.36924670	    -61.30173226	    631.72265033	     -4.29179005	   -494.07113622	     -0.13610185	      0.06531172	     -0.13610185	      0.14151222	     -0.13610185	      0.08418022	     -0.13610185	      0.10195824	     -0.11779214	      0.14584262	     -0.10954560	      0.09682570	     -0.11640335	      0.04521309	     -0.12008739	      0.05044064	     -0.11062105	      0.08782211	     -0.13381604	      0.08434529	     -0.12798365	      0.14147225	     -0.13506671	      0.09686621	     -0.10620448	      0.10069910	     -0.13610185	      0.14440728	     -0.13610185	      0.09599663	     -0.13610185	      0.04108374	     -0.13610185	      0.04913286	     -0.10762619	      0.08453476
      1.13540226	   -120.28950756	   -390.60616503	      0.61395597	      0.52037918	     -0.70690697	     -2.51382076	      2.20609592	    155.26357685	    -60.72198293	    740.44049206	     -9.43295407	    -15.76246642	    364.14843839	     44.75800081	    -60.89974419	    643.26572864	     -4.59940928	   -481.39411248	     -0.13618304	      0.06528634	     -0.13618304	      0.14175137	     -0.13618304	      0.08427813	     -0.13618304	      0.10190999	     -0.11787333	      0.14550680	     -0.10962678	      0.09669569	     -0.11648454	      0.04519007	     -0.12016857	      0.05041833	     -0.11070224	      0.08787529	     -0.13389723	      0.08430276	     -0.12806484	      0.14167618	     -0.13514790	      0.09681940	     -0.10628567	      0.10065463	     -0.13618304	      0.14415149	     -0.13618304	      0.09587729	     -0.13618304	      0.04106284	     -0.13618304	      0.04911069	     -0.10770738	      0.08450227
